# 
# Wavefront OBJ file
# Converted by the 3D Exploration 1.7 beta
# XDimension Software, LLC
# http://www.xdsoft.com/explorer/
# 
# object Object #0
g Object__0
v 1 -1 -1
v 1 -1 1
v -1 -1 1
v -1 -1 -1
v 1 1 -1
v 0.999999 1 1
v -1 1 1
v -1 1 -1
# 8 verticies
vt 0.748573 1.75041
vt 0.749279 1.50128
vt 0.99911 1.50108
vt 0.999455 1.75038
vt 0.250471 1.5007
vt 0.249682 1.74968
vt 0.001085 1.75038
vt 0.001517 1.49999
vt 0.499422 1.50024
vt 0.500149 1.75017
vt 0.748355 1.99823
vt 0.500193 1.99873
vt 0.498993 1.25041
vt 0.748953 1.25092
# 14 texture verticies
vn 0 0 -1
vn -1 0 0
vn 0 -4.76837e-07 1
vn -2.38419e-07 -2.38419e-07 1
vn -4.76837e-07 0 1
vn 1 0 0
vn 1 2.5332e-07 2.5332e-07
vn 1 5.06639e-07 5.06639e-07
vn 0 1 0
vn 0 -1 0
# 10 normals
usemtl (null)
f 5/1/1 1/2/1 4/3/1
f 5/1/1 4/3/1 8/4/1
f 3/5/2 7/6/2 8/7/2
f 3/5/2 8/7/2 4/8/2
f 2/9/3 6/10/4 3/5/4
f 6/10/4 7/6/5 3/5/4
f 1/2/6 5/1/7 2/9/7
f 5/1/7 6/10/8 2/9/7
f 5/1/9 8/11/9 6/10/9
f 8/11/9 7/12/9 6/10/9
f 1/2/10 2/9/10 3/13/10
f 1/2/10 3/13/10 4/14/10
